<svg viewBox="0 0 277 36" fill="none" xmlns="http://www.w3.org/2000/svg">
<path d="M242.531 30.9273C242.531 30.4364 242.202 30.1091 241.707 30.1091H227.363C226.869 30.1091 226.539 30.4364 226.539 30.9273C226.539 31.4182 226.869 31.7455 227.363 31.7455H241.707C242.202 31.7455 242.531 31.3364 242.531 30.9273Z" fill="white"/>
<path d="M230.661 34.2H229.012C228.517 34.2 228.188 34.5273 228.188 35.0182C228.188 35.5091 228.517 35.8364 229.012 35.8364H230.661C231.155 35.8364 231.485 35.5091 231.485 35.0182C231.485 34.5273 231.155 34.2 230.661 34.2Z" fill="white"/>
<path d="M234.535 26.8364C234.535 26.3455 234.206 26.0182 233.711 26.0182H225.715C225.22 26.0182 224.89 26.3455 224.89 26.8364C224.89 27.3273 225.22 27.6545 225.715 27.6545H233.711C234.206 27.6545 234.535 27.2455 234.535 26.8364Z" fill="white"/>
<path fill-rule="evenodd" clip-rule="evenodd" d="M275.506 28.2273C275.258 27.7364 274.764 27.3273 274.269 27.0818L268.004 24.7091L265.448 23.8091C264.707 23.4818 264.047 22.9909 263.635 22.3364L261.492 18.8182C261.904 18.7364 262.151 18.4091 262.151 18C262.151 17.5091 261.821 17.1818 261.327 17.1818H260.502L259.513 15.5455C259.925 15.4636 260.173 15.1364 260.173 14.7273C260.173 14.2364 259.843 13.9091 259.348 13.9091H258.524L257.7 12.6C258.029 12.5182 258.277 12.1909 258.277 11.8636C258.277 11.3727 257.947 11.0455 257.452 11.0455H256.71L255.639 9.32727C255.639 9.32727 255.639 9.24545 255.556 9.24545C254.567 8.1 253.248 7.52727 251.847 7.69091C250.61 7.85455 249.621 8.59091 249.209 9.49091C249.126 9.73636 249.126 9.98182 249.291 10.2273L256.133 21.8455C256.216 22.0091 256.381 22.1727 256.545 22.1727L264.954 25.3636H265.036L267.509 26.2636L273.692 28.6364C273.857 28.7182 274.022 28.8 274.104 29.0455C274.434 29.7 274.434 30.3545 274.022 31.0091H260.585C259.76 31.0091 258.936 30.7636 258.277 30.2727L235.277 13.3364C235.277 13.3364 235.607 13.1727 236.019 12.6C236.431 12.0273 236.596 11.2909 236.596 10.5545L235.854 3.68182L236.844 2.12727C237.091 1.8 237.585 1.71818 237.915 1.96364C237.933 1.98166 237.956 2.00277 237.982 2.02794C238.315 2.34557 239.327 3.30964 241.542 6.87273C242.779 8.67273 244.757 9.98182 246.983 10.3091C247.395 10.3909 247.89 10.0636 247.972 9.65455C248.055 9.24545 247.725 8.75455 247.313 8.67273C245.582 8.34546 243.933 7.36364 242.944 5.89091C240.059 1.47273 239.234 0.818182 238.904 0.572727C237.833 -0.163636 236.349 0.0818182 235.525 1.14545L230.496 9.08182C230.166 9.57273 230.084 10.1455 230.166 10.7182C229.672 10.8818 229.177 11.1273 228.93 11.6182L227.611 13.6636C226.869 14.7273 227.199 16.2 228.27 16.9364C228.911 17.4309 230.166 18.2305 231.983 19.3878C232.27 19.5707 232.572 19.7626 232.887 19.9636L232.887 19.9636C233.052 20.0455 233.216 20.1273 233.299 20.1273C233.546 20.1273 233.793 19.9636 233.958 19.7182C234.206 19.3091 234.123 18.8182 233.711 18.5727C233.004 18.1047 232.363 17.6863 231.794 17.3149C230.573 16.5173 229.683 15.9362 229.177 15.5455C228.847 15.3 228.765 14.8909 229.012 14.4818L230.249 12.6C230.496 12.2727 230.991 12.1909 231.32 12.4364L257.205 31.5818C258.194 32.3182 259.348 32.6455 260.502 32.6455H271.878C270.147 33.4636 267.757 34.2 265.696 34.2H262.811H260.42C259.019 34.2 257.617 33.7909 256.463 33.0545C251.682 30.0273 242.779 24.3818 236.266 20.2091C235.854 19.9636 235.36 20.0455 235.112 20.4545C234.865 20.8636 234.948 21.3545 235.36 21.6C239.538 24.2927 244.716 27.5879 249.154 30.4125C251.459 31.8793 253.564 33.2191 255.227 34.2818H233.958C233.464 34.2818 233.134 34.6091 233.134 35.1C233.134 35.5909 233.464 35.9182 233.958 35.9182H260.42H262.811H265.613C268.993 35.9182 273.857 34.1182 275.093 32.4C276.165 30.9273 276.247 29.5364 275.506 28.2273ZM257.287 20.8636L250.857 9.98182C251.105 9.73636 251.517 9.49091 252.012 9.40909C252.506 9.32727 253.413 9.40909 254.237 10.3091L254.732 11.1273H253.99C253.495 11.1273 253.166 11.4545 253.166 11.9455C253.166 12.4364 253.495 12.7636 253.99 12.7636H255.721L256.545 14.0727H255.886C255.391 14.0727 255.062 14.4 255.062 14.8909C255.062 15.3818 255.391 15.7091 255.886 15.7091H257.535L258.524 17.2636H257.864C257.37 17.2636 257.04 17.5909 257.04 18.0818C257.04 18.5727 257.37 18.9 257.864 18.9H259.513L261.821 22.5L257.287 20.8636ZM234.453 5.97273L231.897 9.98182C231.733 10.3091 231.815 10.7182 232.31 11.1273C233.052 11.7 233.464 11.9455 233.464 11.9455C234.15 12.4751 234.483 11.9552 234.66 11.6799C234.674 11.6575 234.688 11.6367 234.7 11.6182C234.865 11.3727 234.948 11.0455 234.948 10.7182L234.453 5.97273Z" fill="white"/>
<path d="M14.9531 27.375H20.0156C19.9323 28.9375 19.5052 30.3177 18.7344 31.5156C17.974 32.7031 16.9167 33.6354 15.5625 34.3125C14.2083 34.9792 12.599 35.3125 10.7344 35.3125C9.24479 35.3125 7.91146 35.0573 6.73438 34.5469C5.55729 34.0365 4.55729 33.3073 3.73438 32.3594C2.92188 31.401 2.29688 30.25 1.85938 28.9062C1.43229 27.5521 1.21875 26.026 1.21875 24.3281V22.9375C1.21875 21.2396 1.44271 19.7135 1.89062 18.3594C2.33854 17.0052 2.97917 15.849 3.8125 14.8906C4.64583 13.9323 5.64583 13.1979 6.8125 12.6875C7.97917 12.1771 9.28125 11.9219 10.7188 11.9219C12.6562 11.9219 14.2917 12.2708 15.625 12.9688C16.9583 13.6667 17.9896 14.625 18.7188 15.8438C19.4583 17.0625 19.901 18.4531 20.0469 20.0156H14.9688C14.9271 19.1302 14.7604 18.3854 14.4688 17.7812C14.1771 17.1667 13.7292 16.7031 13.125 16.3906C12.5208 16.0781 11.7188 15.9219 10.7188 15.9219C9.98958 15.9219 9.34896 16.0573 8.79688 16.3281C8.25521 16.599 7.80208 17.0208 7.4375 17.5938C7.08333 18.1667 6.81771 18.8958 6.64062 19.7812C6.46354 20.6562 6.375 21.6979 6.375 22.9062V24.3281C6.375 25.526 6.45312 26.5625 6.60938 27.4375C6.76562 28.3125 7.01562 29.0365 7.35938 29.6094C7.71354 30.1823 8.16667 30.6094 8.71875 30.8906C9.27083 31.1719 9.94271 31.3125 10.7344 31.3125C11.6406 31.3125 12.3958 31.1719 13 30.8906C13.6042 30.599 14.0677 30.1615 14.3906 29.5781C14.7135 28.9948 14.901 28.2604 14.9531 27.375ZM41.8125 23.125V24.1406C41.8125 25.8698 41.5729 27.4219 41.0938 28.7969C40.625 30.1719 39.9531 31.3438 39.0781 32.3125C38.2135 33.2812 37.1823 34.026 35.9844 34.5469C34.7969 35.0573 33.4792 35.3125 32.0312 35.3125C30.5833 35.3125 29.2604 35.0573 28.0625 34.5469C26.8646 34.026 25.8229 33.2812 24.9375 32.3125C24.0625 31.3438 23.3854 30.1719 22.9062 28.7969C22.4271 27.4219 22.1875 25.8698 22.1875 24.1406V23.125C22.1875 21.3958 22.4271 19.8438 22.9062 18.4688C23.3854 17.0833 24.0573 15.9062 24.9219 14.9375C25.7969 13.9688 26.8333 13.2292 28.0312 12.7188C29.2292 12.1979 30.5521 11.9375 32 11.9375C33.4479 11.9375 34.7708 12.1979 35.9688 12.7188C37.1667 13.2292 38.1979 13.9688 39.0625 14.9375C39.9375 15.9062 40.6146 17.0833 41.0938 18.4688C41.5729 19.8438 41.8125 21.3958 41.8125 23.125ZM36.6719 24.1406V23.0938C36.6719 21.9375 36.5677 20.9167 36.3594 20.0312C36.151 19.1354 35.849 18.3854 35.4531 17.7812C35.0573 17.1771 34.5677 16.724 33.9844 16.4219C33.401 16.1094 32.7396 15.9531 32 15.9531C31.2292 15.9531 30.5573 16.1094 29.9844 16.4219C29.4115 16.724 28.9271 17.1771 28.5312 17.7812C28.1458 18.3854 27.849 19.1354 27.6406 20.0312C27.4427 20.9167 27.3438 21.9375 27.3438 23.0938V24.1406C27.3438 25.2865 27.4427 26.3073 27.6406 27.2031C27.849 28.0885 28.151 28.8385 28.5469 29.4531C28.9427 30.0677 29.4271 30.5312 30 30.8438C30.5833 31.1562 31.2604 31.3125 32.0312 31.3125C32.7708 31.3125 33.4271 31.1562 34 30.8438C34.5833 30.5312 35.0729 30.0677 35.4688 29.4531C35.8646 28.8385 36.1615 28.0885 36.3594 27.2031C36.5677 26.3073 36.6719 25.2865 36.6719 24.1406ZM63.2656 22.9844V32.1562C62.8906 32.5833 62.3177 33.0417 61.5469 33.5312C60.7865 34.0208 59.8125 34.4427 58.625 34.7969C57.4375 35.1406 56.0208 35.3125 54.375 35.3125C52.8854 35.3125 51.5312 35.0729 50.3125 34.5938C49.0938 34.1042 48.0469 33.3906 47.1719 32.4531C46.2969 31.5052 45.6198 30.349 45.1406 28.9844C44.6719 27.6198 44.4375 26.0573 44.4375 24.2969V22.9531C44.4375 21.1927 44.6719 19.6302 45.1406 18.2656C45.6094 16.901 46.2708 15.75 47.125 14.8125C47.9792 13.8646 48.9948 13.1458 50.1719 12.6562C51.349 12.1667 52.651 11.9219 54.0781 11.9219C56.1094 11.9219 57.7708 12.25 59.0625 12.9062C60.3542 13.5521 61.3333 14.4479 62 15.5938C62.6771 16.7396 63.0938 18.0573 63.25 19.5469H58.3438C58.2396 18.7865 58.0312 18.1302 57.7188 17.5781C57.4167 17.026 56.9844 16.6042 56.4219 16.3125C55.8594 16.0104 55.1302 15.8594 54.2344 15.8594C53.5156 15.8594 52.8646 16.0104 52.2812 16.3125C51.7083 16.6042 51.224 17.0469 50.8281 17.6406C50.4323 18.2344 50.1302 18.974 49.9219 19.8594C49.7135 20.7344 49.6094 21.7552 49.6094 22.9219V24.2969C49.6094 25.4635 49.7135 26.4896 49.9219 27.375C50.1406 28.2604 50.4583 29 50.875 29.5938C51.2917 30.1771 51.8177 30.6198 52.4531 30.9219C53.099 31.224 53.849 31.375 54.7031 31.375C55.3698 31.375 55.9323 31.3229 56.3906 31.2188C56.849 31.1042 57.224 30.9635 57.5156 30.7969C57.8073 30.6198 58.026 30.4583 58.1719 30.3125V26.5312H54.125V22.9844H63.2656ZM85.5156 12.25V35H80.4375L71.8438 20.2969V35H66.75V12.25H71.8438L80.4531 26.9531V12.25H85.5156ZM92.4844 12.25L96.9375 22.375L101.422 12.25H106.922L99.5312 26.7812V35H94.3594V26.7812L86.9531 12.25H92.4844ZM120.359 29C120.359 28.6146 120.302 28.2708 120.188 27.9688C120.073 27.6562 119.865 27.3698 119.562 27.1094C119.26 26.849 118.833 26.5885 118.281 26.3281C117.729 26.0573 117.005 25.7812 116.109 25.5C115.089 25.1667 114.115 24.7917 113.188 24.375C112.271 23.9479 111.453 23.4531 110.734 22.8906C110.016 22.3281 109.448 21.6719 109.031 20.9219C108.625 20.1719 108.422 19.2969 108.422 18.2969C108.422 17.3281 108.635 16.4531 109.062 15.6719C109.49 14.8906 110.089 14.224 110.859 13.6719C111.63 13.1094 112.536 12.6823 113.578 12.3906C114.62 12.0885 115.766 11.9375 117.016 11.9375C118.682 11.9375 120.146 12.2344 121.406 12.8281C122.677 13.4115 123.667 14.2344 124.375 15.2969C125.083 16.349 125.438 17.5729 125.438 18.9688H120.375C120.375 18.3542 120.245 17.8125 119.984 17.3438C119.734 16.8646 119.349 16.4896 118.828 16.2188C118.318 15.9479 117.677 15.8125 116.906 15.8125C116.156 15.8125 115.526 15.9271 115.016 16.1562C114.516 16.375 114.135 16.6771 113.875 17.0625C113.625 17.4479 113.5 17.8698 113.5 18.3281C113.5 18.6927 113.594 19.026 113.781 19.3281C113.979 19.6198 114.26 19.8958 114.625 20.1562C115 20.4062 115.458 20.6458 116 20.875C116.542 21.1042 117.161 21.3229 117.859 21.5312C119.078 21.9167 120.156 22.3438 121.094 22.8125C122.042 23.2812 122.839 23.8125 123.484 24.4062C124.13 25 124.615 25.6719 124.938 26.4219C125.271 27.1719 125.438 28.0208 125.438 28.9688C125.438 29.9792 125.24 30.875 124.844 31.6562C124.458 32.4375 123.896 33.1042 123.156 33.6562C122.427 34.1979 121.552 34.6094 120.531 34.8906C119.51 35.1719 118.37 35.3125 117.109 35.3125C115.964 35.3125 114.833 35.1667 113.719 34.875C112.604 34.5729 111.594 34.1146 110.688 33.5C109.792 32.8854 109.073 32.1042 108.531 31.1562C108 30.1979 107.734 29.0625 107.734 27.75H112.828C112.828 28.4375 112.927 29.0208 113.125 29.5C113.323 29.9688 113.604 30.349 113.969 30.6406C114.344 30.9323 114.797 31.1406 115.328 31.2656C115.859 31.3906 116.453 31.4531 117.109 31.4531C117.87 31.4531 118.484 31.349 118.953 31.1406C119.432 30.9219 119.786 30.625 120.016 30.25C120.245 29.875 120.359 29.4583 120.359 29ZM143.703 21.4062V25.3438H131.922V21.4062H143.703ZM133.531 12.25V35H128.438V12.25H133.531ZM147.219 12.25V35H142.141V12.25H147.219ZM169.969 23.125V24.1406C169.969 25.8698 169.729 27.4219 169.25 28.7969C168.781 30.1719 168.109 31.3438 167.234 32.3125C166.37 33.2812 165.339 34.026 164.141 34.5469C162.953 35.0573 161.635 35.3125 160.188 35.3125C158.74 35.3125 157.417 35.0573 156.219 34.5469C155.021 34.026 153.979 33.2812 153.094 32.3125C152.219 31.3438 151.542 30.1719 151.062 28.7969C150.583 27.4219 150.344 25.8698 150.344 24.1406V23.125C150.344 21.3958 150.583 19.8438 151.062 18.4688C151.542 17.0833 152.214 15.9062 153.078 14.9375C153.953 13.9688 154.99 13.2292 156.188 12.7188C157.385 12.1979 158.708 11.9375 160.156 11.9375C161.604 11.9375 162.927 12.1979 164.125 12.7188C165.323 13.2292 166.354 13.9688 167.219 14.9375C168.094 15.9062 168.771 17.0833 169.25 18.4688C169.729 19.8438 169.969 21.3958 169.969 23.125ZM164.828 24.1406V23.0938C164.828 21.9375 164.724 20.9167 164.516 20.0312C164.307 19.1354 164.005 18.3854 163.609 17.7812C163.214 17.1771 162.724 16.724 162.141 16.4219C161.557 16.1094 160.896 15.9531 160.156 15.9531C159.385 15.9531 158.714 16.1094 158.141 16.4219C157.568 16.724 157.083 17.1771 156.688 17.7812C156.302 18.3854 156.005 19.1354 155.797 20.0312C155.599 20.9167 155.5 21.9375 155.5 23.0938V24.1406C155.5 25.2865 155.599 26.3073 155.797 27.2031C156.005 28.0885 156.307 28.8385 156.703 29.4531C157.099 30.0677 157.583 30.5312 158.156 30.8438C158.74 31.1562 159.417 31.3125 160.188 31.3125C160.927 31.3125 161.583 31.1562 162.156 30.8438C162.74 30.5312 163.229 30.0677 163.625 29.4531C164.021 28.8385 164.318 28.0885 164.516 27.2031C164.724 26.3073 164.828 25.2865 164.828 24.1406ZM188.562 31.0625V35H176.453V31.0625H188.562ZM178.188 12.25V35H173.094V12.25H178.188ZM187 21.4062V25.2188H176.453V21.4062H187ZM188.578 12.25V16.2031H176.453V12.25H188.578ZM202.859 29C202.859 28.6146 202.802 28.2708 202.688 27.9688C202.573 27.6562 202.365 27.3698 202.062 27.1094C201.76 26.849 201.333 26.5885 200.781 26.3281C200.229 26.0573 199.505 25.7812 198.609 25.5C197.589 25.1667 196.615 24.7917 195.688 24.375C194.771 23.9479 193.953 23.4531 193.234 22.8906C192.516 22.3281 191.948 21.6719 191.531 20.9219C191.125 20.1719 190.922 19.2969 190.922 18.2969C190.922 17.3281 191.135 16.4531 191.562 15.6719C191.99 14.8906 192.589 14.224 193.359 13.6719C194.13 13.1094 195.036 12.6823 196.078 12.3906C197.12 12.0885 198.266 11.9375 199.516 11.9375C201.182 11.9375 202.646 12.2344 203.906 12.8281C205.177 13.4115 206.167 14.2344 206.875 15.2969C207.583 16.349 207.938 17.5729 207.938 18.9688H202.875C202.875 18.3542 202.745 17.8125 202.484 17.3438C202.234 16.8646 201.849 16.4896 201.328 16.2188C200.818 15.9479 200.177 15.8125 199.406 15.8125C198.656 15.8125 198.026 15.9271 197.516 16.1562C197.016 16.375 196.635 16.6771 196.375 17.0625C196.125 17.4479 196 17.8698 196 18.3281C196 18.6927 196.094 19.026 196.281 19.3281C196.479 19.6198 196.76 19.8958 197.125 20.1562C197.5 20.4062 197.958 20.6458 198.5 20.875C199.042 21.1042 199.661 21.3229 200.359 21.5312C201.578 21.9167 202.656 22.3438 203.594 22.8125C204.542 23.2812 205.339 23.8125 205.984 24.4062C206.63 25 207.115 25.6719 207.438 26.4219C207.771 27.1719 207.938 28.0208 207.938 28.9688C207.938 29.9792 207.74 30.875 207.344 31.6562C206.958 32.4375 206.396 33.1042 205.656 33.6562C204.927 34.1979 204.052 34.6094 203.031 34.8906C202.01 35.1719 200.87 35.3125 199.609 35.3125C198.464 35.3125 197.333 35.1667 196.219 34.875C195.104 34.5729 194.094 34.1146 193.188 33.5C192.292 32.8854 191.573 32.1042 191.031 31.1562C190.5 30.1979 190.234 29.0625 190.234 27.75H195.328C195.328 28.4375 195.427 29.0208 195.625 29.5C195.823 29.9688 196.104 30.349 196.469 30.6406C196.844 30.9323 197.297 31.1406 197.828 31.2656C198.359 31.3906 198.953 31.4531 199.609 31.4531C200.37 31.4531 200.984 31.349 201.453 31.1406C201.932 30.9219 202.286 30.625 202.516 30.25C202.745 29.875 202.859 29.4583 202.859 29Z" fill="white"/>
</svg>
